<?xml version="1.0" encoding="UTF-8"?>
<svg enable-background="new 275.3703 258.65 1550.6298 828.9293" version="1.1" viewBox="275.37 258.65 1550.6 828.93" ><g>
<path d="m1110.1 362.8c-1.7899-1.27-3.41-2.8101-5.35-3.8201-3.35-1.27-6.6801 0.51-9.7 1.76-3.5801-1.12-7.3601-0.91-11.03-1.3301-1.9514-0.1501-3.8483 0.7285-5.7429 1.2908 0.2217-1.011 0.2764-1.9862 0.1824-2.9154 0.6694 0.0311 1.3247-0.0619 1.9105-0.4453 0.65-1.2999 0.83-2.7699 1.22-4.17 0.66-0.7999 1.28-1.6299 1.85-2.5-0.25-4.2799 3.2401-7.75 2.29-12.14 1.97-2.77 0.84-6.42 1.15-9.5901 0.95-1.3099 1.89-2.6299 2.83-3.95-0.14-0.65-0.4299-1.95-0.58-2.6 1.4399-0.7401 2.89-1.4801 4.34-2.2301-0.75-0.7899-1.49-1.5699-2.22-2.3499 2.42-5.25 3.74-11.21 3.09-16.98 0.3201-0.41 0.9601-1.22 1.28-1.62 0.05-3.8899 1.17-8.11-1.17-11.58-1.76-0.8-3.5-1.61-5.24-2.38-4.24 0.46-8.5499 0.5601-12.65 1.89-0.4701 2.89-2.7301 4.65-5.1901 5.86-0.06 0.58-0.1801 1.75-0.24 2.33-0.79 0.4601-1.5601 0.92-2.3199 1.39-1.39 2.61-3.4301 4.8301-6.1801 6 0.8099 0.04 2.4301 0.12 3.24 0.15-0.06 0.51-0.1801 1.5299-0.24 2.0399-2.8199-0.2899-3.21 2.4601-3.73 4.52-1.49 0.8201-2.99 1.6201-4.48 2.42 0.1499 1.52 0.3099 3.04 0.46 4.58-3.4 1.8-7.22 5.5701-4.7 9.65-4.4801 2.38-2.7101 7.9901-3 12.08-0.4 0.4501-1.2101 1.3601-1.6101 1.8101 0.8601 2.8201-1.47 4.5801-3.3099 6.24 0.08 1.8401 0.17 3.6801 0.35 5.53-2.33 0.72-4.76 1.8301-7.24 1.11-3.71-0.9-7.53-0.77-11.3-0.59-2.95 2.1-5.13 5.09-5.9399 8.6399 3.4301 1.28 7.25 1.51 10.42 3.4501 2.7799 2.14 5.0199 5.0699 8.37 6.41 2.5599 1.01 4.96 2.37 7.24 3.9199 1.1 3.55-0.89 6.8701-1.05 10.38 0.01 5.0898 6.96 6.74 6.3201 12.06 3.5599 3.58 8.88 5.2001 11.33 9.89 7.73 2 16.33 2.08 23.77-1.1101 0.4099-1.3699 0.83-2.74 1.26-4.0999-0.88-0.3901-1.75-0.78-2.6001-1.16 0.5601-1.25 1.13-2.5 1.7001-3.7401-0.5601-0.2599-1.7001-0.7699-2.27-1.0299 0.45-2.35-0.5699-4.34-2.46-5.66 0.37-4.37 0.77-9.2-3.11-12.27 4.6499 0.4 9.24 1.39 13.77 2.5601 3.42 2.52 7.5801 4.53 11.94 4.1899 2.34-3.2 4.55-6.74 5.33-10.68 0.3098-3.7698-0.8402-7.4598-0.9902-11.21z" fill="#7db4b0" opacity=".7"/><path d="m876.53 396.84c-1.26-0.7699-2.5-1.5599-3.71-2.36-7.9712-1.2712-15.743-3.5095-23.662-4.9629 0.0898-1.2891-0.052-2.5938-0.4158-3.825 0.0659-6e-3 0.1309-3e-3 0.1973-0.0122-0.4399-2.26-1.34-4.3999-1.8099-6.6399 0.7899-1.78 2.6801-2.99 2.9401-5 0.48-3.3101 1.7999-6.51 1.58-9.8901 0.96-1.9199 1.9401-3.8199 3.0699-5.6399-0.08-0.6001-0.23-1.8201-0.3101-2.42 2.6401-3.0499 4.6301-6.5399 6.5801-10.03 0.13-0.9701 0.27-1.92 0.4299-2.8701 2.2301-1.79 3.2001-4.34 3-7.1599 4.24-3.39 6.6702-8.3401 8.76-13.22-1.3099-1.3701-2.46-2.9401-4.1399-3.8501-3-1.84-6.26 0.74-9.3701 0.97-0.2699 0.4401-0.8099 1.3101-1.0798 1.75-3.02 0.5801-6.28 1.1001-8.3801 3.5901-1.52 1.8-3.9399 1.9099-5.99 2.6799-4.7 5.13-10.68 8.8301-15.85 13.43-1.66 2.01-3.2001 4.16-5.51 5.47-1.2999 1.84-2.72 3.59-4.2799 5.2101-1.99 4.0898-2.77 8.6299-2.4001 13.17 3.0701 1.46 0.76 3.65-1.26 4.5601-0.3799 2.49-0.6399 4.99-0.5499 7.52-1.62 0.51-3.17 1.1699-4.5699 2.1299-2.48 0.78-5.0701 1.64-7.7001 1.2001-3.8199-0.62-7.66 0.0599-11.48 0.24-0.4401 0.83-0.88 1.67-1.2999 2.51-0.9501 0.42-1.8901 0.85-2.8201 1.2799-0.11 0.49-0.3101 1.49-0.4199 1.98 2.1699 1.0801 4.3799 2.2001 6.8298 2.53 3.5801 0.41 6.1802 3.1801 9.4102 4.52 3.8099 1.92 8.3699 2.3701 11.75 5.1201 4.47 4.9099 8.5599 10.39 14.22 14.03 0.46 0.76 0.9299 1.53 1.4199 2.3099 5.0799 3.56 9.38 8.22 14.94 11.14 4.59 2.26 9.0299 4.83 13.27 7.71 1.49 0.2 2.9701 0.3899 4.49 0.59-0.3599-0.92-0.7599-1.8099-1.21-2.66-4.0499-4.71-8.35-9.78-9.6199-16.03-0.4601-4.3699-4.5801-7.58-3.3101-12.23 1.96 0.1901 4.1399-0.09 5.8999 1.03 6.49 3.75 13.81 6.79 21.47 6.2 2.8-4.2301 2.8-9.4901 0.8901-14.07z" fill="#be9093" opacity=".7"/><path d="m638.69 495.95c0.54-0.55 1.63-1.66 2.18-2.21-2.23-3.73-4.09-7.66-5.35-11.81-3.58-1.07-7.41-1.14-10.97 0.02-0.29 0.73-0.87 2.19-1.16 2.92-3.819 1.4937-8.0742 0.8903-11.935 1.9018-0.3226-0.82-0.7529-1.5905-1.2908-2.2855 0.0522-0.0147 0.1038-0.0317 0.156-0.0463 0.43-0.91 0.86-1.82 1.3-2.72-0.2-1.02-0.39-2.05-0.57-3.07-0.48-0.27-1.45-0.8299-1.94-1.1099 0.03-2.75 0.11-5.48 0.25-8.22-0.59-1.28-1.08-2.6001-1.48-3.9401-0.5 0.01-1.48 0.01-1.97 0.0199-0.27-2.9199-0.24-6.1799-3.42-7.45 0.02-2.3099 0.95-5.02-1.09-6.74-0.08-1.52-0.15-3.03-0.21-4.54-0.53-0.2899-1.57-0.8599-2.09-1.1499 0.04-0.71 0.1-2.13 0.13-2.8501-0.98-0.52-1.96-1.0299-2.92-1.5399-0.1-1.39-0.17-2.77-0.26-4.15-1.64-2.12-2.78-4.54-3.69-7.04-4.03-2.6499-5.52-7.4099-7.88-11.36-1.1-1.96-3.31-3.0499-4.16-5.15-0.59-1.58-2.19-2.3199-3.45-3.26-0.05-1.1699-0.1-2.33-0.13-3.49-4.5-2.4399-10-2.0599-14.18 0.8101-0.62 1.23-1.27 2.45-1.96 3.65-0.72 6.25-0.05 12.57-0.37 18.86-0.39 3.27 0.76 6.35 1.59 9.45 1.26 9.14 2.84 18.33 6.29 26.94 0.7 0.4399 1.42 0.88 2.14 1.33 2.16 3.13 4.43 6.4399 4.16 10.45 0.6801 0.35 2.04 1.06 2.72 1.41-2.22 1.51-4.37 3.28-7.02 3.95-6.02 1.83-12.45-0.48-18.43 1.55-1.5 2.44-4.47 4.19-4.52 7.3101 3.42 1.2599 7.05 1.65 10.6 2.36 6.16 2.68 11.97 6.09 18.01 9.02 0.57 2.57-0.87 4.3-3.26 5.03-0.09 0.49-0.28 1.46-0.38 1.95 0.42 0.37 1.26 1.11 1.68 1.49-0.05 0.49-0.14 1.49-0.19 1.99-0.5-0.03-1.52-0.09-2.02-0.12-3.14 6.39-5.86 13.08-6.92 20.16-1.92 8.04-4.49 16.05-4.47 24.41-2.4 6.17-1.26 12.87-1.46 19.33-0.69 4.9 4.91 8.23 9.23 7.9 4.78 0.46 8.57-2.81 12.89-4.19-0.12-0.66-0.36-1.96-0.48-2.61 3.29-3.03 5.53-7.09 9.26-9.65 0.18-0.45 0.52-1.36 0.69-1.82 1.11-0.33 2.19-0.75 3.25-1.25-1.04-2.95 1.59-7.09-1.77-8.86 1.26-0.32 2.53-0.65 3.8-0.96 1.81-2.82 1.25-7.15 4.91-8.49 0.85-2.58 1.29-5.28 2.0099-7.89 0.52-1.51 2.03-2.45 2.44-4 0.25-2.1 0.18-4.22 0.4-6.31 1.12-0.6 2.42-0.71 3.65-1.01 0.3-3.29 0.8199-6.58 0.52-9.88 0.45-3.72-0.94-7.27-1.6-10.86 1.98 0.06 4.02-0.12 5.98 0.33 2.37 1.2401 4.32 3.1801 6.82 4.23 3.44 1.42 5.53 4.87 9.04 6.18 2.17 0.9 4.55 0.92 6.87 0.88-0.11-2.92-0.5-5.93 0.78-8.66 2.17-1.44 2.5-3.76 2.32-6.17-0.0199-3.0403 2.9201-7.3503-1.0699-8.9703z" fill="#7db4b0" opacity=".7"/><path d="m1594.9 580.92c-1.2101-1.53-1.78-3.34-1.9601-5.23-3.03-3.28-9.61-4.75-11.75 0.24-4.27 1.27-8.5699 2.85-13.1 2.65 0.1047 0.549 0.1576 1.072 0.1405 1.5445-0.2617-0.7468-0.6143-1.4562-1.049-2.1122 0.1495-9e-3 0.2991-0.0104 0.4485-0.0223-0.5601-2.45-0.87-4.95-1.05-7.44-0.99-0.99-2.54-1.92-2.11-3.55 0.41-3.62-0.38-7.19-0.87-10.75-0.52-0.26-1.5699-0.77-2.1-1.02 0.02-2.12-0.1801-4.22-0.51-6.3-0.73-1.18-1.91-2.31-1.49-3.82 0.8199-5.6-2.73-10.58-2.54-16.14-2.4299-2.31-0.4-6.14-3.39-8.12-0.63-4.47-3.72-7.88-6.0399-11.54-0.55-0.29-1.65-0.87-2.2001-1.16 0.64-4.7599-2.04-8.65-4.99-12.02-0.6801 0.03-2.02 0.07-2.6899 0.1-0.55-0.99-1.0701-1.97-1.5701-2.95-1.49 0.36-2.96 0.71-4.41 1.07-1.0399 0.9-2.09 1.78-3.11 2.67-0.7 3.75-3.4199 7.21-1.9199 11.14-2.4301 4.97-2.62 10.47-2.63 15.88-1.65 7.93 1.59 15.98-0.5801 23.88 0.37 0.47 1.1001 1.39 1.4701 1.86 0.97 4.62 2.9399 8.98 3.86 13.62 0.47 2.33 0.1699 4.91 1.72 6.92-0.21 0.96-0.4 1.92-0.58 2.89-0.9901 0.95-1.9401 1.93-2.89 2.9-1.28 0.94-2.3501 2.1-2.62 3.73-3.87 0.05-7.7301-0.15-11.57 0.04-2.24-0.01-3.22 2.42-4.4399 3.89-0.54 0.23-1.63 0.7-2.17 0.94 0.21 0.75 0.4301 1.5099 0.67 2.28 5.23 0.61 10.18 2.46 14.96 4.63 2.66 1.53 5.35 3.14 8.38 3.87 0.71 1.03 1.63 2.11 1.28 3.5-0.3401 3.07 0.15 6.13 0.76 9.14-0.4301 0.46-1.3 1.37-1.73 1.83 0.1699 2.39-0.1101 4.77-0.5601 7.13-3.98 5.69-0.9301 12.94-0.77 19.27-0.04 5.53 1.97 10.77 2.3101 16.25 1.5599 2.06 0.33 4.91 2.12 6.87-0.06 0.63-0.17 1.87-0.23 2.49 1.5299 0.8101 2.86 1.82 2.1699 3.84 0.4 0.22 1.2001 0.66 1.6 0.88-0.03 1.57-0.07 3.13-0.06 4.72 2.6799 0.88 4.98 2.54 7.16 4.31 2.23-0.87 4.5-1.73 6.4099-3.23 0.5601 0.12 1.67 0.36 2.23 0.48-0.11-0.67-0.34-2.03-0.46-2.71 1.91-3.5 4.9401-7.14 4.02-11.39 1.91-1.91 4.97-3.22 5.4301-6.17 0.7999-4.56 0.84-9.34 2.7999-13.62-0.4-0.31-1.1799-0.93-1.5699-1.23 0.4199-2.59 0.9-5.17 1.4099-7.73-0.35-2.48-0.01-4.96 0.3401-7.41 0.47-0.43 1.4099-1.29 1.88-1.72-0.26-7.09-0.3401-14.17-0.4501-21.25 4.26-1.14 7.41 2.33 10.98 3.97 4.42 2.17 8.2001 6.72 13.49 6.44 2.7599-0.71 2.22-3.98 2.5599-6.13 0.14-2.75 2.8101-4.24 4.22-6.35 1.07-5.82-1.83-11.13-2.6599-16.75z" fill="#be9093" opacity=".7"/><path d="m387.67 509.42c4.82-0.13 9.3 2.07 12.65 5.43 1.12 1.72 0.72 4.01 1.85 5.76 1.04 1.76 1.66 3.71 1.85 5.76 0.81 0.48 1.63 0.97 2.45 1.46-0.71 2.33 0.49 4.06 2.34 5.39-1.13 3.73-2.09 7.59-0.97 11.47 1.56-0.14 3.12-0.29 4.69-0.39-0.91 2.92 0.3 5.56 2.06 7.84-0.32 1.68-0.63 3.37-0.94 5.06 4.41 3.16 9.51 5.2 14.71 6.67 6.58 1.4 13.46 1.85 19.64 4.74 2.18 0.88 1.7 3.46 2.03 5.33-3.89 3.32-9.65 2.08-13.99 0.34-4.01-0.8-7.95-1.88-11.95-2.6801-3.97-0.04-7.94 0.44-11.91 0.2 0.18 1.57 0.38 3.13 0.61 4.71-0.44 0.29-1.33 0.87-1.78 1.16-0.08 2.46-1.07 4.69-2.49 6.67-0.14 3.23-1.66 6.16-2.46 9.2599-1.6 0.55-3.13-0.0699-4.59-0.68 0 1.46-0.05 2.93-0.12 4.4 2.24 0.96 1.31 2.6-0.33 3.62 0.22 0.8 0.67 2.38 0.89 3.17-1.19 3.9-3.84 7.09-5.71 10.66-0.72 0.01-2.16 0.04-2.88 0.05 0.01 0.42 0.04 1.24 0.05 1.66 0.92 1.19 1.42 2.58 1.28 4.11-2.06 0.24-4.11 0.52-6.16 0.83-1.49-0.12-2.97-0.23-4.45-0.32 0.52 0.9901 1.04 1.9901 1.57 3 4.79 0.9 9.67 0.12 14.47 0.89 7.36 1.11 14.8 1.67 22.15 2.96 0.85 0.98 1.77 1.91 2.51 2.99 0.64 2.16-1.06 3.99-1.84 5.85 0.74 0.01 2.22 0.02 2.97 0.03-0.5 1.21-1.01 2.42-1.5 3.65-2.4 0.6801-4.8 2.04-7.36 1.47-4.33-0.8-8.76-0.87-13.03-1.99-5.03-1.29-10.26-0.68-15.39-0.74-0.1 0.95-0.18 1.9-0.26 2.87 1.15 0.76 2.83 1.27 3.04 2.91-0.21 1.73-2 2.2-3.23 3 0.34 1.08 0.71 2.14 1.13 3.2 0.16 0.91 0.47 2.73 0.63 3.64h-2.78c0.22 1.73 0.47 3.46 0.73 5.19-0.68-0.19-2.05-0.56-2.73-0.75 0.05 5.31 0.43 10.67-0.58 15.92-0.4 1.83 0.13 3.67 0.38 5.49-0.69 0.15-2.06 0.44-2.74 0.59-0.78 3.14-1.35 7.21 2.25 8.85-0.44 1.63-1.17 3.16-2.41 4.35-0.68-0.95-1.35-1.9-2.01-2.85 0.61 3.38 0.52 6.83 0.82 10.25-0.94-0.02-2.81-0.05-3.74-0.07 0.25 2.99 1.84 5.59 2.86 8.36-1.44-0.48-2.88-0.95-4.31-1.41-0.33 0.68-0.97 2.04-1.3 2.72-0.99 0.27-1.98 0.55-2.97 0.84-0.29 0.5-0.85 1.49-1.14 1.98-1.25-0.91-2.5-1.82-3.75-2.71-0.95-1.24-1.92-2.46-2.88-3.67-0.82-2.66-2.13-5.16-4.17-7.08-0.15-0.96-0.29-1.91-0.43-2.85-1.19-1.52-1.83-3.3-2.09-5.19-0.31-0.46-0.92-1.39-1.23-1.86-0.62-1.45-1.34-2.85-2.17-4.17-0.19-0.95-0.37-1.88-0.55-2.81-1.6-2.93-3.21-5.85-4.57-8.89-0.32-2.99-0.05-6.15-1.69-8.82-3.03-6.15-1.29-13.79 3.76-18.33 0.27-4.23 4.32-6.99 3.51-11.47-5.3-2.67-10.9-4.71-16.15-7.5-4.09-1.2-8.45-1.34-12.67-1.91-0.37-5.04 4.31-8.66 8.76-9.7 4.77 2 10.06 1.81 15.11 1.23 2.81-3.56 3.34-8.58 5.64-12.56-1.63-2.87-3.09-6.06-5.94-7.93-0.43-1.71-0.38-3.46-0.08-5.17-0.16-0.64-0.47-1.92-0.63-2.56 0.56-0.08 1.69-0.25 2.25-0.33-0.13-0.54-0.4-1.61-0.53-2.14 1.65-2.35 2.8-5.65 5.9-6.37 0.32-0.96 0.64-1.92 0.96-2.86 4-0.8 6.21-4.6 9.84-6.15 1.96-0.7 2.48-2.78 3.09-4.53 3.42-0.08 6.92 0.36 10.25-0.7-4.14-2.83-8.18-5.98-12.94-7.7-3.26-1.04-6.69-1.49-9.88-2.79 0.57-4.32 4.01-9.27 8.86-8.46 4.01 1.79 8.5 2.47 12.87 1.99 2.31-0.29 5.07-2.3 3.98-4.91-2.14-3.66-7.23-4.98-8.37-9.27-0.84-1.76 0.96-2.93 1.81-4.15 0.01-0.58 0.04-1.75 0.05-2.33 1.15-1 2.29-2.01 3.44-3.01-0.42-2.42 0.5-4.5 2.75-5.56 1.12-2.33 2.25-4.65 3.42-6.95 0.73-1.5298 1.37-3.0898 1.91-4.6998z" fill="#6aa986" opacity=".7"/><path d="m1275.6 509.84c3.27-1.39 5.87 1.23 9.03 1.59 0.2799 0.99 0.58 2 0.9 3.01 1.0399 0.3 2.1 0.61 3.1799 0.93 1.14 3.97 2.79 7.82 3.28 11.97 0.41 0.2599 1.25 0.78 1.6699 1.04 1.6901 5.22 0.92 10.69 0.54 16.05 4.4401 2.78 3.34 8.25 3.39 12.66-1.78 0.5699-6.34-1.01-5.23 2.31 7.61 0.29 14.91 3.16 22.59 2.41 3.36-0.44 6.35 1.2 9.17 2.8 0.04 0.58 0.13 1.76 0.1699 2.35 1.03 0.97 2.1001 1.97 3.16 2.97-0.12 2.43 0.23 4.83 1.22 7.07-1.24 0.1-2.38 0.42-3.4299 0.97 0.14 0.94 0.4299 2.82 0.5699 3.76-7.2799 2.17-14.05-2.22-20.33-5.25-3.61-2.08-8.09-3.63-12.16-2.2-2.1699 0.66-0.46 2.9-0.2899 4.3799 1.96 4.4901-0.9901 9.05-0.41 13.67-1.12 1.2-2.2001 2.42-3.24 3.67-0.61 3.65-1.3301 7.28-1.39 11-2.46 3.63-2.47 8.26-4.35 12.19-0.6901 4.59-2.5901 9.06-6.37 11.94-0.08 1.76-0.12 3.53-0.12 5.31-0.9401 0.28-1.8601 0.57-2.77 0.87 0.37 3.81-3.1801 5.56-5.75 7.48-0.66-0.11-2-0.32-2.66-0.43-0.46 0.49-1.39 1.48-1.85 1.97-4.6801 0.55-7.92-3.88-7.9-8.19-1.48-2.04-2.33-4.39-1.97-6.93-0.99-1.82-0.5-3.6 0.34-5.33-0.8-7.27-2.6801-14.61-1.08-21.93 0.04-6.13 0.9099-12.18 1.34-18.28 0.48-0.27 1.4399-0.81 1.92-1.07 0.04-0.66 0.11-1.97 0.1399-2.63 2.6901-2.99 3.39-6.99 4.7401-10.64-4.03-2.16-8.5601-3.61-11.86-6.9-0.97-0.15-1.9099-0.3-2.83-0.44-2.59-2.24-6.47-1.36-8.86-3.95 2.15-2.11 3.16-6.21 6.84-5.84 4.4601 0.09 8.9301-0.14 13.3-1.18 0.45-0.43 1.35-1.29 1.7999-1.72 0.67-0.03 2-0.08 2.67-0.11-0.4299-3.46 0.13-7.14-1.38-10.37-1.03-2.12-1.64-4.39-2.09-6.69 0.5499-0.18 1.65-0.55 2.2-0.73 0.28-1.03 0.5701-2.05 0.88-3.06 0.38-0.2401 1.15-0.73 1.54-0.97 0.37-3.4 3.1-5.52 4.83-8.2 1.17-3 2.62-5.96 5.1801-8.02 0.5603-1.1099 1.1503-2.2099 1.7303-3.3099z" fill="#be9093" opacity=".7"/><path d="m912.2 658.37c-0.6799 0.1-2.04 0.31-2.72 0.42-0.01-1.68 0.15-3.34 0.03-5-2.27-0.21-4.47-0.69-6.54-1.62-3.55-1.56-7.51-0.64-11.21-1.42-5-1.04-10.16-1.32-15.02-2.97-0.915-0.2806-1.8418-0.4459-2.7751-0.5433 0.1405-1.4396-6e-3 -2.9089-0.4341-4.2805 0.8064-0.2771 1.6128-0.5492 2.4192-0.8262-0.1599-1.72-0.34-3.43-0.5499-5.13 0.23-2.07-0.02-4.27 1.0099-6.16-0.9399-2.14-0.46-4.6201-1.5499-6.66 1.5599 0.44 0.99 2.48 1.8099 3.52 0.6101-0.85 1.1901-1.72 1.8201-2.55l-1.22 0.37c-0.26-4.05-0.99-8.06-0.72-12.13-0.3901-0.63-1.16-1.91-1.55-2.54 0.88-0.58 2.74-1.94 1.28-3.0099-1.24-1.23-2.6201-2.3-3.9301-3.44l4.12 0.48c0.1201-1.62 0.22-3.23 0.3-4.84-1.8301-0.13-3.52-0.57-3.78-2.65 0.91-0.87 1.87-1.7 2.72-2.63-0.1899-1.22-1.5599-1.54-2.35-2.23-0.1-0.55-0.3099-1.65-0.42-2.2 0.54 0.08 1.6201 0.26 2.16 0.34 0.1-0.57 0.3099-1.7 0.41-2.27-1.8501-2.48-0.75-5.9-2.74-8.29-0.9399-1.26-0.95-2.88-1.22-4.34-2.4401-1.58-0.65-3.95 0.1599-5.9-0.1399-1.5-0.3899-2.97-0.75-4.41 0.5-0.13 1.49-0.38 1.99-0.5-0.9199-2.4-2.5599-4.35-4.78-5.64l0.04-2.64c-0.85-0.46-1.7-0.92-2.53-1.36-0.4399-0.79-0.8699-1.58-1.2899-2.36-2.79-0.55-5.6901-1.67-8.53-0.94-2.66 1.34-2.91 4.88-5.1 6.79-2.23 2.03-2.26 5.14-3.1699 7.81-1.2101 2.88-3.1501 5.41-4.2001 8.37-0.4501 2.63 0.13 5.56-1.33 7.95-1.79 3.54-4.8301 6.78-4.77 10.98 0.11 2.7-0.1101 5.41-0.98 7.99-1.3401 3.94-0.22 8.15-0.8401 12.2-0.5601 3.97 1.54 7.87 0.48 11.84-0.8999 3.62-1.53 8.14 1.72 10.83-1.51 1.79-2.5299 4.37-4.8199 5.27-5.2899 0.36-10.6-0.06-15.89 0.2-1.96 2.4-4.3799 4.72-4.85 7.94 5.58 0.28 11.07 1.87 15.81 4.88 3.4102 2.28 7.5901 2.93 10.97 5.3-0.09 1.19-0.16 2.39-0.2301 3.6-4.6299-0.4399-3.0898 5.2401-3.1399 8.08 0.46 0.46 1.36 1.38 1.8201 1.84 0.8999 6.4 4.7599 11.89 9.3599 16.25 1.99 0.04 3.98 0.13 5.98 0.27 6.99-1.99 14.19-3.3799 20.68-6.79-0.35-2.97 1.2999-5.45 3.33-7.42-1.1199-3.05 1.3401-5.53 2.1201-8.29-0.24-1.84-2.4501-2.42-3.66-3.48 0.14-0.56 0.4301-1.66 0.58-2.21 3.3101 0 6.74-0.46 9.98 0.55 8.05 2.71 16.7 2.39 25.09 2.41-0.26-0.77-0.79-2.3-1.05-3.07 0.6 0.15 1.8101 0.45 2.4199 0.61-3e-4 -1.4601 0.01-2.9101 0.0298-4.3501z" fill="#6aa986" opacity=".7"/>
</g></svg>
