<?xml version="1.0" encoding="UTF-8"?>
<svg width="650mm" height="500mm" version="1.1" viewBox="0 0 650 500" xmlns="http://www.w3.org/2000/svg">
 <defs>
  <linearGradient id="linearGradient1677">
   <stop stop-color="#46948f" offset="0"/>
   <stop stop-color="#469468" stop-opacity=".97487" offset="1"/>
  </linearGradient>
  <linearGradient id="linearGradient1604">
   <stop stop-color="#469468" offset="0"/>
   <stop stop-color="#94464b" offset="1"/>
  </linearGradient>
  <filter id="filter2207" x="-.036011" y="-.047057" width="1.072" height="1.0941" color-interpolation-filters="sRGB">
   <feGaussianBlur stdDeviation="9.1755929"/>
  </filter>
  <linearGradient id="linearGradient2211" x1="113.58" x2="305.09" y1="-255.7" y2="-255.7" gradientTransform="matrix(1 0 0 .81556 -93.075 64.68)" gradientUnits="userSpaceOnUse">
   <stop stop-color="#46948f" offset="0"/>
   <stop stop-color="#469468" offset="1"/>
  </linearGradient>
  <linearGradient id="linearGradient2213" x1="203.91" x2="571" y1="-256.24" y2="104.56" gradientTransform="matrix(1 0 0 .81556 35.209 97.472)" gradientUnits="userSpaceOnUse" xlink:href="#linearGradient1604"/>
  <linearGradient id="linearGradient2215" x1="331.67" x2="698.76" y1="-223.63" y2="137.17" gradientTransform="matrix(1 0 0 .81556 -92.546 70.879)" gradientUnits="userSpaceOnUse" xlink:href="#linearGradient1604"/>
  <linearGradient id="linearGradient2217" x1="246.16" x2="362.54" y1="-259.48" y2="-212.55" gradientTransform="matrix(.99997 0 0 .87461 162.98 135.68)" gradientUnits="userSpaceOnUse">
   <stop stop-color="#94464b" offset="0"/>
   <stop stop-color="#46948f" offset="1"/>
  </linearGradient>
  <linearGradient id="linearGradient2219" x1="502.74" x2="619.12" y1="-187.85" y2="-140.92" gradientTransform="matrix(.99997 0 0 .87461 -93.591 73.03)" gradientUnits="userSpaceOnUse">
   <stop stop-color="#94464b" offset="0"/>
   <stop stop-color="#46948f" offset="1"/>
  </linearGradient>
  <linearGradient id="linearGradient2221" x1="410.09" x2="638.39" y1="-159.69" y2="286.32" gradientTransform="matrix(3.7795 0 0 3.0824 -31.632 1239.7)" gradientUnits="userSpaceOnUse" xlink:href="#linearGradient1677"/>
  <linearGradient id="linearGradient2223" x1="410.09" x2="638.39" y1="-159.69" y2="286.32" gradientTransform="translate(-5.3454)" gradientUnits="userSpaceOnUse" xlink:href="#linearGradient1677"/>
 </defs>
 <g transform="translate(0,203)">
  <g transform="translate(-655.03 110.14)" fill="#b3b3b3" filter="url(#filter2207)" opacity=".699">
   <use transform="translate(672.8 -108.86)" width="100%" height="100%" fill="#b3b3b3" xlink:href="#g1960"/>
  </g>
  <g id="g1960">
   <ellipse cx="51.767" cy="263.45" rx="31.75" ry="25.894" fill="#469468"/>
   <path d="m33.597-139.53s-13.149 13.625-13.149 30.888v308.26s0 17.263 21.167 17.263h21.167s21.225-6e-5 21.167-17.263l-1.0691-317.09s-6.949-22.058-49.282-22.058z" fill="#46948f"/>
   <path d="m169.33-135.98s-21.167 0-21.167 17.263v327.99s0 17.263 21.167 17.263h21.167s21.167 0 21.167-17.263v-327.99s0-17.263-42.333-17.263z" fill="#469468"/>
   <path d="m296.33-118.72s-21.167 0-21.167 17.263v327.99s0 17.263 21.167 17.263h21.167s21.167 0 21.167-17.263v-327.99s0-17.263-42.333-17.263z" fill="#94464b"/>
   <path d="m112.72-133.99c-30.47 0-30.413 23.152-30.413 23.152l-59.929 1.7438s-8.7623-20.826 11.632-40.878c40.724-40.04 136.84-36.569 167.41 0.77512 12.847 15.69 10.411 38.36 10.411 38.36l-62.229-1.7438s-1.0691-21.408-31.539-21.408" fill="url(#linearGradient2211)"/>
   <path d="m241-101.2c-30.47 0-30.413 23.152-30.413 23.152l-59.929 1.7438s-8.7623-20.826 11.632-40.878c40.724-40.04 136.84-36.569 167.41 0.77512 12.847 15.69 10.411 38.359 10.411 38.359l-62.229-1.7438s-1.0691-21.408-31.539-21.408" fill="url(#linearGradient2213)" stroke="url(#linearGradient2215)" stroke-width=".17967"/>
   <path d="m368.77-77.379c-30.47 0-30.412 24.829-30.412 24.829l-59.927 1.8701s-8.7621-22.334 11.632-43.838c40.723-42.94 136.83-47.15 223.35 21.989 17.078 13.648 11.923 18.657 11.923 18.657l-119.68-0.54774s-1.069-22.958-31.539-22.958" fill="url(#linearGradient2217)" stroke="url(#linearGradient2219)" stroke-width=".18606"/>
   <g transform="matrix(1 0 0 .81556 -3.0238 25.007)">
    <path transform="matrix(.26458 0 0 .32442 3.0238 -402.19)" d="m1598.3 752.13v848.18s788.57-77.108 788.57-462.64c0-385.54-788.57-385.54-788.57-385.54zm160 195.73s388.57 1e-3 388.57 177.94c0 177.94-388.57 213.53-388.57 213.53z" fill="url(#linearGradient2221)"/>
    <path d="m425.91-158.18s-21.167 0-21.167 21.167v402.17s0 21.167 21.167 21.167h21.167s21.167 0 21.167-21.167v-402.17s0-21.167-42.333-21.167z" fill="url(#linearGradient2223)"/>
   </g>
  </g>
 </g>
</svg>
