<?xml version="1.0" encoding="UTF-8"?>
<svg width="600" height="600" version="1.1" viewBox="0 0 158.75 158.75" xmlns="http://www.w3.org/2000/svg">
 <g transform="translate(0 -138.25)" fill="none">
  <g stroke="#be9093">
   <path transform="matrix(-1 .00037389 .00026031 1 0 0)" d="m-98.123 225.19a38.5 40.229 0 0 1-51.174-11.478 38.5 40.229 0 0 1 7.0684-54.19 38.5 40.229 0 0 1 52.247 3.251" stroke-width="2.5462"/>
   <rect transform="rotate(29.868)" x="131.67" y="97.765" width="63.5" height="116.42" rx="6.6611" ry="7.3023" stroke-width=".79375"/>
   <ellipse transform="rotate(23.411)" cx="137.92" cy="136.06" rx="11.528" ry="10.583" stroke-width=".79375"/>
   <rect transform="rotate(29.868)" x="127.36" y="102.98" width="63.5" height="116.42" rx="6.6611" ry="7.3023" stroke-width="5.2917"/>
  </g>
  <path transform="matrix(-1 .0003444 .00028259 1 0 0)" d="m-108.31 259.23a23.033 22.17 0 0 1-25.798 7.6191 23.033 22.17 0 0 1-15.609-21.188 23.033 22.17 0 0 1 16.005-20.912 23.033 22.17 0 0 1 25.65 8.0678" stroke="#46948f" stroke-width="2.6458"/>
  <path d="m35.735 272.25 0.56397-55s0.11279-11 8.9065-10.859c8.7937 0.14114 8.6809 11.141 8.6809 11.141l-0.56397 55s-0.1128 11-8.9065 10.859c-8.7937-0.14112-8.6809-11.141-8.6809-11.141z" stroke="#469468" stroke-width="2.6458"/>
  <path d="m55.961 240.21s-0.03133-14.563 13.22-14.597c13.252-0.0344 13.283 14.529 13.283 14.529s-0.03131-14.563 13.22-14.597c13.252-0.0344 13.283 14.529 13.283 14.529l0.0731 33.98s0.0209 9.7086-13.231 9.7431c-13.252 0.0344-13.272-9.6742-13.272-9.6742s0.02087 9.7086-13.231 9.743c-13.252 0.0344-13.272-9.6742-13.272-9.6742z" stroke="#46948f" stroke-width="2.6458"/>
  <ellipse transform="rotate(23.411)" cx="133.05" cy="140.76" rx="11.528" ry="10.583" stroke="#be9093" stroke-width="5.2917"/>
 </g>
</svg>
