<?xml version="1.0" encoding="UTF-8"?>
<svg id="svg" version="1.1" viewBox="0 0 400 472.15" xmlns="http://www.w3.org/2000/svg" xmlns:xlink="http://www.w3.org/1999/xlink">
 <defs>
  <linearGradient id="linearGradient4554" x1="264.46" x2="361.16" y1="359.05" y2="25.29" gradientUnits="userSpaceOnUse">
   <stop stop-color="#2a5855" offset="0"/>
   <stop stop-color="#469468" offset=".58364"/>
   <stop stop-color="#94464b" offset="1"/>
  </linearGradient>
  <filter id="filter4887" x="-.056669" y="-.04347" width="1.1133" height="1.0869" color-interpolation-filters="sRGB">
   <feGaussianBlur stdDeviation="7.8109906"/>
  </filter>
 </defs>
 <g id="svgg">
  <g transform="matrix(1.0803 0 0 1.0925 -33.878 17.384)">
   <g transform="translate(16.5,3.2)" fill="#53536c" filter="url(#filter4887)" opacity=".682">
    <g fill="#53536c">
     <path d="m201.67 20.627c-0.66 0.073-3.27 0.329-5.8 0.569-5.282 0.502-14.108 1.732-18.2 2.538-8.071 1.588-11.448 2.352-14.565 3.295-18.954 5.731-34.554 12.884-48.903 22.422-5.655 3.759-10.891 7.391-11.132 7.722-0.11 0.151-0.958 0.819-1.884 1.484-2.535 1.82-10.207 8.66-13.872 12.369-7.946 8.04-13.173 13.992-17.166 19.55-1.898 2.64-3.966 5.52-4.598 6.4-2.017 2.81-6.08 8.924-6.08 9.148 0 0.119-0.569 1.17-1.265 2.334-2.176 3.645-8.333 15.469-8.334 16.007-1e-3 0.159-0.429 1.239-0.951 2.4-2.218 4.926-4.142 9.938-5.878 15.311-0.427 1.32-0.941 2.76-1.144 3.2-0.202 0.44-0.461 1.25-0.574 1.8-0.332 1.606-1.134 4.533-1.48 5.4-0.175 0.44-0.432 1.651-0.57 2.691-0.137 1.04-0.42 1.995-0.627 2.123s-0.377 1.021-0.377 1.984c0 0.962-0.199 2.257-0.443 2.876-0.523 1.331-1.053 4.569-1.554 9.495-0.2 1.964-0.543 4.034-0.762 4.6-1.278 3.303-1.177 39.578 0.115 41.583 0.196 0.304 0.5 2.104 0.677 4 0.176 1.897 0.612 4.888 0.968 6.648s0.802 4.1 0.991 5.2c0.348 2.024 0.834 4.009 1.849 7.546 0.308 1.07 0.559 2.275 0.559 2.676 0 0.402 0.159 0.829 0.354 0.949 0.195 0.121 0.443 0.716 0.551 1.324 0.415 2.323 4.724 13.839 7.339 19.616 0.526 1.161 0.956 2.361 0.956 2.667 0 0.305 0.147 0.615 0.327 0.689 0.18 0.073 0.912 1.393 1.627 2.933s1.465 3.07 1.666 3.4 1.014 1.86 1.806 3.4 1.755 3.34 2.141 4 1.293 2.28 2.017 3.6 1.744 2.973 2.266 3.673c0.523 0.701 0.95 1.373 0.95 1.494 0 0.202 3.916 5.868 4.745 6.864 0.197 0.238 0.809 1.138 1.359 2 0.551 0.863 1.404 2.019 1.896 2.569s1.299 1.63 1.794 2.4 1.334 1.85 1.864 2.4 1.49 1.72 2.133 2.6c2.636 3.606 15.678 16.811 20.409 20.665 3.444 2.805 4.647 3.81 6.992 5.835 0.828 0.715 1.626 1.3 1.773 1.3 0.148 0 0.486 0.183 0.752 0.407 0.966 0.814 6.702 4.793 6.909 4.793 0.117 0 1.239 0.667 2.493 1.483 1.255 0.815 2.911 1.827 3.681 2.25 0.77 0.422 1.49 0.893 1.6 1.046 0.11 0.154 0.47 0.403 0.8 0.554 0.33 0.15 1.23 0.657 2 1.126 4.56 2.774 18.073 9.541 19.053 9.541 0.108 0 1.13 0.429 2.272 0.954 1.141 0.525 2.975 1.275 4.075 1.666 1.1 0.392 2.171 0.862 2.38 1.046s0.698 0.334 1.086 0.334c0.389 0 1.298 0.252 2.02 0.56 1.784 0.761 7.694 2.64 8.302 2.64 0.27 0 1.058 0.253 1.752 0.562 0.693 0.309 1.89 0.666 2.66 0.794s2.66 0.513 4.2 0.857 3.7 0.775 4.8 0.959c1.1 0.183 2.72 0.524 3.6 0.756 3.063 0.807 11.402 1.818 20.6 2.497 6.94 0.512 22.699 0.285 28-0.404 1.87-0.243 5.56-0.717 8.2-1.053 5.462-0.695 6.424-0.877 13.6-2.574 8.971-2.122 21.535-5.996 22.467-6.927 0.255-0.255-8.409-0.49-10.831-0.293-3.304 0.268-19.31-1.551-27.836-3.163-13.671-2.585-29.648-8.975-43.03-17.21-5.45-3.354-12.231-8.158-12.503-8.858-0.074-0.189-0.376-0.343-0.672-0.343-0.297 0-2.307-1.669-4.467-3.708-2.16-2.04-4.629-4.335-5.485-5.1-8.644-7.724-17.051-17.965-25.276-30.792-2.174-3.39-7.767-14.348-7.767-15.217 0-0.198-0.463-1.4-1.03-2.671-0.983-2.207-1.833-4.172-2.557-5.912-0.183-0.44-0.629-1.88-0.991-3.2-0.361-1.32-1.083-3.75-1.604-5.4-1.124-3.563-1.721-5.886-2.211-8.6-0.198-1.1-0.65-3.26-1.004-4.8-0.353-1.54-0.805-4.6-1.004-6.8s-0.544-5.26-0.767-6.8c-0.491-3.391-0.51-19.081-0.028-23.8 0.592-5.798 1.674-12.984 2.409-16 0.187-0.77 0.647-2.75 1.022-4.4 1.461-6.438 4.177-14.865 7.605-23.6 3.08-7.845 12.975-24.299 18.455-30.685 0.904-1.053 2.06-2.455 2.57-3.115 5.026-6.513 16.547-17.264 25.335-23.643 33.685-24.45 65.23-27.513 70.652-6.86 1.166 4.442 1.052 6.199-0.927 14.303-1.03 4.221-4.357 9.031-10.835 15.667-1.861 1.906-3.756 4.069-4.211 4.805s-1.244 1.712-1.753 2.169c-1.2 1.075-2.552 2.687-3.076 3.666-0.349 0.651-1.51 2.17-3.653 4.776-0.218 0.266-0.397 0.579-0.397 0.697s-0.352 0.62-0.783 1.117c-0.889 1.025-6.84 10.548-8.831 14.132-0.725 1.304-1.642 2.911-2.039 3.571-1.163 1.935-2.425 4.733-4.151 9.2-0.595 1.54-1.265 3.25-1.49 3.8s-0.55 1.54-0.723 2.2c-0.304 1.167-0.98 3.174-1.615 4.8-0.172 0.44-0.426 1.651-0.564 2.691-0.137 1.04-0.42 1.995-0.627 2.123s-0.377 0.844-0.377 1.59-0.27 2.394-0.6 3.661c-0.829 3.183-0.829 15.845 0 18.935 0.325 1.21 0.593 2.787 0.595 3.505 3e-3 0.718 0.17 1.618 0.372 2s0.848 2.221 1.435 4.086c0.587 1.864 1.592 4.512 2.233 5.883s1.165 2.604 1.165 2.739c0 0.875 9.216 12.702 11.056 14.188 0.409 0.33 1.644 1.32 2.743 2.2 1.1 0.879 2.254 1.84 2.564 2.134 0.693 0.657 3.312 2.438 4.873 3.312 0.635 0.356 1.414 0.863 1.732 1.126 7.84 6.507 31.812 10.707 45.032 7.89 22.218-4.736 39.395-15.31 55.978-34.46 3.615-4.174 10.128-13.124 12.465-17.129 0.746-1.279 1.537-2.629 1.757-3s1.03-1.754 1.8-3.074 1.617-2.76 1.883-3.2c0.503-0.833 0.704-1.251 2.032-4.213 2.121-4.729 4.607-11.471 5.306-14.387 0.184-0.77 0.625-2.48 0.98-3.8 2.275-8.47 2.986-12.287 3.832-20.6 0.741-7.266 0.043-24.602-1.23-30.6-1.382-6.508-1.812-8.333-2.685-11.4-1.523-5.353-2.147-7.281-2.913-9-0.392-0.88-1.172-2.692-1.733-4.026-0.561-1.335-1.662-3.705-2.446-5.268-0.784-1.563-1.426-2.977-1.426-3.142 0-0.166-0.243-0.585-0.541-0.933-0.298-0.347-1.277-2.007-2.177-3.688-3.158-5.899-7.224-11.545-13.642-18.943-2.052-2.365-10.364-10.488-12.438-12.155-0.989-0.795-3.081-2.525-4.649-3.845-1.569-1.32-4.18-3.295-5.802-4.39-1.623-1.094-3.041-2.084-3.151-2.2-0.281-0.295-1.685-1.164-2.4-1.484-0.33-0.148-1.95-1.105-3.6-2.126-1.65-1.022-4.17-2.474-5.6-3.229-1.43-0.754-2.69-1.461-2.8-1.571-0.791-0.791-12.132-5.6-13.206-5.6-0.415 0-0.898-0.245-1.074-0.544-0.399-0.677 2.8069 0.97971-3.32-0.674-24.778-9.0373-23.754-7.8681-45.088-11.875-2.771-1.111-4.879-0.87776-10.912-2.0618-4.652-0.913-16.237-1.472-20.6-0.994" fill="#53536c" fill-rule="evenodd" opacity="1"/>
    </g>
   </g>
   <path d="m201.67 20.627c14.548-1.3417-3.27 0.329-5.8 0.569-5.282 0.502-14.108 1.732-18.2 2.538-8.071 1.588-11.448 2.352-14.565 3.295-18.954 5.731-34.554 12.884-48.903 22.422-5.655 3.759-10.891 7.391-11.132 7.722-0.11 0.151-0.958 0.819-1.884 1.484-2.535 1.82-10.207 8.66-13.872 12.369-7.946 8.04-13.173 13.992-17.166 19.55-1.898 2.64-3.966 5.52-4.598 6.4-2.017 2.81-6.08 8.924-6.08 9.148 0 0.119-0.569 1.17-1.265 2.334-2.176 3.645-8.333 15.469-8.334 16.007-1e-3 0.159-0.429 1.239-0.951 2.4-2.218 4.926-4.142 9.938-5.878 15.311-0.427 1.32-0.941 2.76-1.144 3.2-0.202 0.44-0.461 1.25-0.574 1.8-0.332 1.606-1.134 4.533-1.48 5.4-0.175 0.44-0.432 1.651-0.57 2.691-0.137 1.04-0.42 1.995-0.627 2.123s-0.377 1.021-0.377 1.984c0 0.962-0.199 2.257-0.443 2.876-0.523 1.331-1.053 4.569-1.554 9.495-0.2 1.964-0.543 4.034-0.762 4.6-1.278 3.303-1.177 39.578 0.115 41.583 0.196 0.304 0.5 2.104 0.677 4 0.176 1.897 0.612 4.888 0.968 6.648s0.802 4.1 0.991 5.2c0.348 2.024 0.834 4.009 1.849 7.546 0.308 1.07 0.559 2.275 0.559 2.676 0 0.402 0.159 0.829 0.354 0.949 0.195 0.121 0.443 0.716 0.551 1.324 0.415 2.323 4.724 13.839 7.339 19.616 0.526 1.161 0.956 2.361 0.956 2.667 0 0.305 0.147 0.615 0.327 0.689 0.18 0.073 0.912 1.393 1.627 2.933s1.465 3.07 1.666 3.4 1.014 1.86 1.806 3.4 1.755 3.34 2.141 4 1.293 2.28 2.017 3.6 1.744 2.973 2.266 3.673c0.523 0.701 0.95 1.373 0.95 1.494 0 0.202 3.916 5.868 4.745 6.864 0.197 0.238 0.809 1.138 1.359 2 0.551 0.863 1.404 2.019 1.896 2.569s1.299 1.63 1.794 2.4 1.334 1.85 1.864 2.4 1.49 1.72 2.133 2.6c2.636 3.606 15.678 16.811 20.409 20.665 3.444 2.805 4.647 3.81 6.992 5.835 0.828 0.715 1.626 1.3 1.773 1.3 0.148 0 0.486 0.183 0.752 0.407 0.966 0.814 6.702 4.793 6.909 4.793 0.117 0 1.239 0.667 2.493 1.483 1.255 0.815 2.911 1.827 3.681 2.25 0.77 0.422 1.49 0.893 1.6 1.046 0.11 0.154 0.47 0.403 0.8 0.554 0.33 0.15 1.23 0.657 2 1.126 4.56 2.774 18.073 9.541 19.053 9.541 0.108 0 1.13 0.429 2.272 0.954 1.141 0.525 2.975 1.275 4.075 1.666 1.1 0.392 2.171 0.862 2.38 1.046s0.698 0.334 1.086 0.334c0.389 0 1.298 0.252 2.02 0.56 1.784 0.761 7.694 2.64 8.302 2.64 0.27 0 1.058 0.253 1.752 0.562 0.693 0.309 1.89 0.666 2.66 0.794s2.66 0.513 4.2 0.857 3.7 0.775 4.8 0.959c1.1 0.183 2.72 0.524 3.6 0.756 3.063 0.807 11.402 1.818 20.6 2.497 6.94 0.512 22.699 0.285 28-0.404 1.87-0.243 5.56-0.717 8.2-1.053 5.462-0.695 6.424-0.877 13.6-2.574 8.971-2.122 21.535-5.996 22.467-6.927 0.255-0.255-8.409-0.49-10.831-0.293-3.304 0.268-19.31-1.551-27.836-3.163-13.671-2.585-29.648-8.975-43.03-17.21-5.45-3.354-12.231-8.158-12.503-8.858-0.074-0.189-0.376-0.343-0.672-0.343-0.297 0-2.307-1.669-4.467-3.708-2.16-2.04-4.629-4.335-5.485-5.1-8.644-7.724-17.051-17.965-25.276-30.792-2.174-3.39-7.767-14.348-7.767-15.217 0-0.198-0.463-1.4-1.03-2.671-0.983-2.207-1.833-4.172-2.557-5.912-0.183-0.44-0.629-1.88-0.991-3.2-0.361-1.32-1.083-3.75-1.604-5.4-1.124-3.563-1.721-5.886-2.211-8.6-0.198-1.1-0.65-3.26-1.004-4.8-0.353-1.54-0.805-4.6-1.004-6.8s-0.544-5.26-0.767-6.8c-0.491-3.391-0.51-19.081-0.028-23.8 0.592-5.798 1.674-12.984 2.409-16 0.187-0.77 0.647-2.75 1.022-4.4 1.461-6.438 4.177-14.865 7.605-23.6 3.08-7.845 12.975-24.299 18.455-30.685 0.904-1.053 2.06-2.455 2.57-3.115 5.026-6.513 16.547-17.264 25.335-23.643 33.685-24.45 65.23-27.513 70.652-6.86 1.166 4.442 1.052 6.199-0.927 14.303-1.03 4.221-4.357 9.031-10.835 15.667-1.861 1.906-3.756 4.069-4.211 4.805s-1.244 1.712-1.753 2.169c-1.2 1.075-2.552 2.687-3.076 3.666-0.349 0.651-1.51 2.17-3.653 4.776-0.218 0.266-0.397 0.579-0.397 0.697s-0.352 0.62-0.783 1.117c-0.889 1.025-6.84 10.548-8.831 14.132-0.725 1.304-1.642 2.911-2.039 3.571-1.163 1.935-2.425 4.733-4.151 9.2-0.595 1.54-1.265 3.25-1.49 3.8s-0.55 1.54-0.723 2.2c-0.304 1.167-0.98 3.174-1.615 4.8-0.172 0.44-0.426 1.651-0.564 2.691-0.137 1.04-0.42 1.995-0.627 2.123s-0.377 0.844-0.377 1.59-0.27 2.394-0.6 3.661c-0.829 3.183-0.829 15.845 0 18.935 0.325 1.21 0.593 2.787 0.595 3.505 3e-3 0.718 0.17 1.618 0.372 2s0.848 2.221 1.435 4.086c0.587 1.864 1.592 4.512 2.233 5.883s1.165 2.604 1.165 2.739c0 0.875 9.216 12.702 11.056 14.188 0.409 0.33 1.644 1.32 2.743 2.2 1.1 0.879 2.254 1.84 2.564 2.134 0.693 0.657 3.312 2.438 4.873 3.312 0.635 0.356 1.414 0.863 1.732 1.126 7.84 6.507 31.812 10.707 45.032 7.89 22.218-4.736 39.395-15.31 55.978-34.46 3.615-4.174 10.128-13.124 12.465-17.129 0.746-1.279 1.537-2.629 1.757-3s1.03-1.754 1.8-3.074 1.617-2.76 1.883-3.2c0.503-0.833 0.704-1.251 2.032-4.213 2.121-4.729 4.607-11.471 5.306-14.387 0.184-0.77 0.625-2.48 0.98-3.8 2.275-8.47 2.986-12.287 3.832-20.6 0.741-7.266 0.043-24.602-1.23-30.6-1.382-6.508-1.812-8.333-2.685-11.4-1.523-5.353-2.147-7.281-2.913-9-0.392-0.88-1.172-2.692-1.733-4.026-0.561-1.335-1.662-3.705-2.446-5.268-0.784-1.563-1.426-2.977-1.426-3.142 0-0.166-0.243-0.585-0.541-0.933-0.298-0.347-1.277-2.007-2.177-3.688-3.158-5.899-7.224-11.545-13.642-18.943-2.052-2.365-10.364-10.488-12.438-12.155-0.989-0.795-3.081-2.525-4.649-3.845-1.569-1.32-4.18-3.295-5.802-4.39-1.623-1.094-3.041-2.084-3.151-2.2-0.281-0.295-1.685-1.164-2.4-1.484-0.33-0.148-1.95-1.105-3.6-2.126-1.65-1.022-4.17-2.474-5.6-3.229-1.43-0.754-2.69-1.461-2.8-1.571-0.791-0.791 0 0-11.438-6.661-6.0228-3.6409 0 0-18.187-8.2913-13.965-3.6522-13.38-3.3703-29.88-6.5703-16.008-1.6727-22.553-1.0048-34.695-0.22645" fill="url(#linearGradient4554)" fill-rule="evenodd"/>
  </g>
 </g>
</svg>
