<?xml version="1.0" encoding="UTF-8"?>
<svg enable-background="new 0 0 441.948 441.948" version="1.1" viewBox="0 0 441.95 441.95" xmlns="http://www.w3.org/2000/svg">
 <path d="m306.92 68.629c-8.868 8.869-13.752 20.66-13.752 33.201 0 12.542 4.884 24.333 13.752 33.201 9.153 9.153 21.177 13.729 33.201 13.729s24.047-4.576 33.2-13.729c8.869-8.868 13.752-20.659 13.752-33.201 0-12.541-4.884-24.332-13.752-33.201-18.306-18.306-48.093-18.306-66.401 0zm52.259 52.26c-10.509 10.511-27.607 10.51-38.117 0-5.091-5.091-7.894-11.858-7.894-19.059 0-7.199 2.804-13.968 7.894-19.059 5.255-5.255 12.156-7.882 19.059-7.882 6.901 0 13.805 2.628 19.058 7.882 5.091 5.091 7.895 11.859 7.895 19.059 0 7.201-2.804 13.968-7.895 19.059z"/>
 <path d="m435.58 13.329c-0.938-3.382-3.581-6.023-6.961-6.962-36.445-10.115-75.921-8.147-114.16 5.688-29.631 10.721-58.449 28.693-79.065 49.31l-31.096 31.096-112.65 17.597c-2.094 0.327-4.029 1.311-5.528 2.809l-72.051 72.051c-2.806 2.807-3.688 7.006-2.247 10.703s4.933 6.192 8.897 6.359l71.073 2.989-17.813 17.813c-3.905 3.905-3.905 10.237 0 14.143l10.397 10.396-31.053 47.599c-2.584 3.961-2.041 9.19 1.304 12.535l79.871 79.87c3.345 3.344 8.574 3.89 12.536 1.304l47.597-31.054 10.397 10.397c3.905 3.904 10.237 3.904 14.143 0l17.813-17.813 2.989 71.071c0.167 3.965 2.662 7.456 6.359 8.897 1.18 0.46 2.41 0.683 3.63 0.683 2.604 0 5.162-1.019 7.073-2.929l72.051-72.051c1.499-1.499 2.482-3.435 2.81-5.528l17.598-112.65 31.095-31.096c20.616-20.616 38.589-49.434 49.31-79.064 13.833-38.239 15.8-77.716 5.686-114.16zm-292.68 354.12-68.394-68.394 24.321-37.278 33.604 33.604-3.952 3.952c-3.906 3.905-3.906 10.237 0 14.143 3.905 3.904 10.237 3.904 14.143 0l3.952-3.952 33.604 33.604zm223.54-175.03-33.401 33.402-34.766 34.766c-3.905 3.905-3.905 10.237 0 14.143 3.905 3.904 10.237 3.904 14.143 0l13.082-13.082-12.865 82.354-53.64 53.641-2.804-66.686 27.943-27.943c3.905-3.905 3.905-10.237 0-14.143-3.905-3.904-10.237-3.904-14.143 0l-31.071 31.071-26.824 26.823-8.917-8.917c-0.102-0.105-0.204-0.208-0.31-0.309l-42.155-42.156 120.94-120.94c3.905-3.905 3.906-10.237 0-14.143-3.904-3.903-10.236-3.904-14.142 0l-120.94 120.95-42.157-42.157c-0.1-0.104-0.202-0.206-0.307-0.307l-8.917-8.918 26.824-26.824c0.017-0.016 0.033-0.032 0.049-0.049l31.021-31.021c3.906-3.905 3.906-10.237 0-14.143-3.904-3.904-10.237-3.904-14.142 0l-27.943 27.943-66.686-2.805 53.64-53.64 82.354-12.864-13.082 13.081 14.142 14.143 34.649-34.649c0.075-0.073 0.15-0.147 0.223-0.223l33.296-33.296c27.828-27.827 93.904-69.058 168.2-51.297 17.761 74.3-23.47 140.38-51.297 168.2z"/>
 <g fill="none" stroke="#000">
  <path id="upper" d="m56.521 325.62-36.262 37.359" stroke="#FFFFFF" stroke-width="12"/>
  <path id="down" d="m118.11 386.19-36.262 37.359" stroke-width="12"/>
  <path id="middle" d="m86.645 353.38-50.142 51.999" stroke-width="16.648"/>
 </g>
</svg>
